#!OML:ASF F:\VICON\USERDATA\INSTALL\rory3\rory3.ASF
:FULLY-SPECIFIED
:DEGREES
457
root -0.530348 27.8462 -1.12432 -166.543 -1.3099 -178.788
lowerback 6.41178 1.84648 -6.46335
upperback -0.370724 1.86659 -0.958643
thorax -4.16733 1.03046 2.44363
lowerneck -19.0419 1.95345 -8.50362
upperneck 35.2061 2.26348 3.27023
head 15.3894 -0.593893 3.05582
rclavicle -2.92213e-014 -4.77083e-015
rhumerus -31.1399 -0.863545 -84.5421
rradius 39.9843
rwrist 18.5821
rhand -23.697 3.65122
rfingers 7.12502
rthumb 2.77002 -26.3105
lclavicle -2.92213e-014 -4.77083e-015
lhumerus -29.9858 5.49465 80.8057
lradius 35.384
lwrist -3.10585
lhand -12.1921 26.5086
lfingers 7.12502
lthumb 13.8719 56.026
rfemur -15.5934 -0.253977 23.7116
rtibia 34.4788
rfoot 6.28377 -3.79115
rtoes -0.896348
lfemur -41.3965 1.90645 -24.1603
ltibia 52.2262
lfoot -21.7519 -4.34743
ltoes -6.79237
458
root -0.531319 27.9247 -1.17074 -166.785 -1.37662 -178.756
lowerback 6.42398 1.8271 -6.44229
upperback -0.343413 1.84825 -0.882656
thorax -4.14563 1.02171 2.513
lowerneck -19.126 1.9746 -8.51639
upperneck 35.3228 2.29361 3.2723
head 15.4626 -0.59398 3.06755
rclavicle -4.17448e-015 3.18055e-015
rhumerus -31.2321 -1.12312 -84.3872
rradius 39.7807
rwrist 18.5104
rhand -23.5489 3.74168
rfingers 7.12502
rthumb 2.91297 -26.2182
lclavicle -4.17448e-015 3.18055e-015
lhumerus -30.0144 5.29068 80.9641
lradius 35.7137
lwrist -3.01704
lhand -11.9389 26.5857
lfingers 7.12502
lthumb 14.1159 56.0862
rfemur -16.1394 -0.620825 23.6124
rtibia 36.2076
rfoot 5.18313 -4.08684
rtoes -0.699872
lfemur -40.2368 1.72315 -24.031
ltibia 50.9018
lfoot -21.312 -4.21629
ltoes -6.98619
459
root -0.53417 28.0032 -1.2213 -166.965 -1.46946 -178.745
lowerback 6.35022 1.81164 -6.34009
upperback -0.309969 1.84357 -0.879288
thorax -4.06509 1.01471 2.46258
lowerneck -19.2787 1.97594 -8.45107
upperneck 35.426 2.27602 3.30111
head 15.5499 -0.594299 3.071
rclavicle -6.95746e-015 -1.27222e-014
rhumerus -31.3133 -1.46872 -84.3029
rradius 39.612
rwrist 18.4539
rhand -23.6243 3.77347
rfingers 7.12502
rthumb 2.84022 -26.1874
lclavicle -6.95746e-015 -1.27222e-014
lhumerus -29.9084 4.89408 81.0911
lradius 35.9233
lwrist -2.8792
lhand -11.7866 26.8384
lfingers 7.12502
lthumb 14.2627 56.3286
rfemur -16.7439 -1.01136 23.489
rtibia 37.9514
rfoot 3.89148 -4.44389
rtoes 0.682634
lfemur -39.1163 1.49318 -23.9307
ltibia 49.5431
lfoot -20.9122 -4.08739
ltoes -7.17063
460
root -0.538795 28.0792 -1.26816 -167.181 -1.52986 -178.798
lowerback 6.33184 1.7012 -6.37201
upperback -0.352433 1.7037 -0.757593
thorax -4.0909 0.951258 2.62123
lowerneck -19.1082 2.12548 -8.53296
upperneck 35.48 2.51836 3.19041
head 15.5171 -0.53672 3.07489
rclavicle -1.19271e-014 -4.77083e-015
rhumerus -31.5954 -1.39207 -84.1615
rradius 39.5875
rwrist 18.5332
rhand -23.5628 3.50963
rfingers 7.12502
rthumb 2.89961 -26.4504
lclavicle -1.19271e-014 -4.77083e-015
lhumerus -30.0941 4.973 81.2468
lradius 36.1294
lwrist -2.79066
lhand -11.8761 26.5793
lfingers 7.12502
lthumb 14.1764 56.0756
rfemur -17.3352 -1.47439 23.2753
rtibia 39.7134
rfoot 2.37573 -4.8253
rtoes 2.68528
lfemur -37.9576 1.25902 -23.9053
ltibia 48.165
lfoot -20.458 -3.9892
ltoes -7.21391
461
root -0.539791 28.1531 -1.31119 -167.501 -1.59955 -178.861
lowerback 6.44122 1.69081 -6.4211
upperback -0.35193 1.6795 -0.717838
thorax -4.1526 0.94258 2.68992
lowerneck -19.0176 2.19854 -8.4582
upperneck 35.5924 2.58696 3.10824
head 15.5478 -0.527058 3.03693
rclavicle -2.127e-014 -7.95139e-016
rhumerus -31.8657 -1.69542 -84.0109
rradius 39.6667
rwrist 18.6602
rhand -23.2972 3.12365
rfingers 7.12502
rthumb 3.15606 -26.8327
lclavicle -2.127e-014 -7.95139e-016
lhumerus -30.0895 4.84583 81.3586
lradius 36.1978
lwrist -2.75063
lhand -11.9372 26.0726
lfingers 7.12502
lthumb 14.1175 55.573
rfemur -17.7898 -1.97579 23.0917
rtibia 41.4864
rfoot 0.789742 -5.12738
rtoes 3.40569
lfemur -36.7227 1.07162 -23.885
ltibia 46.8014
lfoot -19.9876 -3.91007
ltoes -7.43504
462
root -0.542843 28.2222 -1.3548 -167.759 -1.71742 -178.855
lowerback 6.46199 1.64871 -6.34808
upperback -0.395283 1.63181 -0.655286
thorax -4.20448 0.922003 2.71797
lowerneck -18.6894 2.25148 -8.47704
upperneck 35.5361 2.61939 3.08215
head 15.4401 -0.52638 3.02405
rclavicle 3.77691e-015 -2.78299e-014
rhumerus -32.1026 -1.89812 -83.8523
rradius 39.6181
rwrist 18.7213
rhand -23.1099 2.89059
rfingers 7.12502
rthumb 3.33698 -27.063
lclavicle 3.77691e-015 -2.78299e-014
lhumerus -30.1877 4.65038 81.4943
lradius 36.3578
lwrist -2.66933
lhand -11.9722 26.2494
lfingers 7.12502
lthumb 14.0838 55.7521
rfemur -18.2382 -2.54772 22.9988
rtibia 43.241
rfoot -0.754863 -5.37019
rtoes 4.3982
lfemur -35.5781 0.782757 -23.7787
ltibia 45.474
lfoot -19.5006 -3.8197
ltoes -7.45306
463
root -0.545236 28.2864 -1.39579 -168.018 -1.83339 -178.736
lowerback 6.54726 1.64417 -6.11961
upperback -0.414779 1.64239 -0.600357
thorax -4.2682 0.926513 2.6438
lowerneck -18.6114 2.24665 -8.46666
upperneck 35.5422 2.59222 3.07973
head 15.4271 -0.540451 3.0142
rclavicle -4.57205e-015 -2.06736e-014
rhumerus -32.2398 -2.12139 -83.7172
rradius 39.502
rwrist 18.76
rhand -23.0008 2.82879
rfingers 7.12502
rthumb 3.44233 -27.1232
lclavicle -4.57205e-015 -2.06736e-014
lhumerus -30.2583 4.48988 81.6224
lradius 36.6034
lwrist -2.72898
lhand -12.0449 26.2762
lfingers 7.12502
lthumb 14.0138 55.7838
rfemur -18.6802 -3.00387 23.0124
rtibia 44.9363
rfoot -2.29401 -5.89661
rtoes 5.5882
lfemur -34.4643 0.489397 -23.5525
ltibia 44.1698
lfoot -19.0218 -3.67191
ltoes -7.4433
464
root -0.546448 28.3467 -1.43944 -168.28 -1.9198 -178.688
lowerback 6.60727 1.62863 -6.00331
upperback -0.401537 1.63073 -0.55396
thorax -4.28474 0.919596 2.62705
lowerneck -18.7012 2.29244 -8.33216
upperneck 35.6061 2.66471 2.96537
head 15.4791 -0.513154 2.95765
rclavicle 2.74323e-014 0
rhumerus -32.3323 -2.19855 -83.6142
rradius 39.4474
rwrist 18.6825
rhand -22.8637 2.66032
rfingers 7.12502
rthumb 3.57473 -27.2894
lclavicle 2.74323e-014 0
lhumerus -30.2664 4.28187 81.7287
lradius 36.7984
lwrist -2.67056
lhand -12.2899 25.8792
lfingers 7.12502
lthumb 13.7776 55.403
rfemur -19.1474 -3.39638 22.9481
rtibia 46.5495
rfoot -3.78765 -6.51292
rtoes 5.7571
lfemur -33.3372 0.208021 -23.4069
ltibia 42.8586
lfoot -18.544 -3.74669
ltoes -6.77496
465
root -0.548017 28.41 -1.48227 -168.564 -1.97925 -178.711
lowerback 6.67038 1.61483 -6.00065
upperback -0.436895 1.61082 -0.502517
thorax -4.35689 0.913757 2.67923
lowerneck -18.5103 2.36211 -8.22937
upperneck 35.6634 2.70363 2.89246
head 15.4619 -0.507898 2.90999
rclavicle -1.0138e-014 3.33958e-014
rhumerus -32.503 -2.32402 -83.4597
rradius 39.3003
rwrist 18.823
rhand -22.9493 2.79634
rfingers 7.12502
rthumb 3.49207 -27.1548
lclavicle -1.0138e-014 3.33958e-014
lhumerus -30.3082 4.08719 81.8334
lradius 36.8847
lwrist -2.56443
lhand -12.1818 26.0758
lfingers 7.12502
lthumb 13.8818 55.5925
rfemur -19.6913 -3.72518 22.7854
rtibia 48.0644
rfoot -5.2061 -6.91085
rtoes 5.14504
lfemur -32.1706 -0.03293 -23.3608
ltibia 41.5355
lfoot -18.073 -3.7905
ltoes -6.43277
466
root -0.551792 28.4738 -1.52587 -168.787 -2.03332 -178.773
lowerback 6.68551 1.41076 -6.09007
upperback -0.419004 1.34766 -0.260092
thorax -4.33044 0.789922 3.01059
lowerneck -18.7203 2.52061 -8.75704
upperneck 35.8702 3.08993 2.99788
head 15.5681 -0.428933 3.11957
rclavicle 2.57426e-014 3.97569e-015
rhumerus -32.4077 -1.70275 -83.2661
rradius 39.1201
rwrist 18.8507
rhand -22.916 2.86031
rfingers 7.12502
rthumb 3.52423 -27.0903
lclavicle 2.57426e-014 3.97569e-015
lhumerus -30.3492 4.62508 82.0137
lradius 37.0352
lwrist -2.48536
lhand -12.1731 26.3053
lfingers 7.12502
lthumb 13.8902 55.8214
rfemur -20.3543 -4.01019 22.5385
rtibia 49.5107
rfoot -6.47468 -7.19389
rtoes 4.71681
lfemur -31.0435 -0.295122 -23.3685
ltibia 40.1951
lfoot -17.5858 -3.81206
ltoes -5.92079
